<?xml version="1.0" encoding="UTF-8"?><svg id="b" xmlns="http://www.w3.org/2000/svg" viewBox="0 0 1000 638.265"><g id="c"><g><path d="M1000,350.162c-.576,4.784-1.104,9.573-1.735,14.35-3.644,27.58-12.104,53.695-23.97,78.779-14.485,30.62-34.142,57.561-57.878,81.624-43.518,44.121-92.63,80.897-146.368,111.611-.922,.527-1.872,1.005-3.244,1.739,64.498-79.979,108.799-168.35,120.119-271.577-3.772,0-7.151-.008-10.529,.001-27.481,.071-54.971,.586-82.437-.014-9.993-.219-19.931-3.079-29.885-4.785-1.044-.179-2.037-.678-3.04-1.065-4.285-1.654-6.398-4.117-6.379-9.377,.226-63.64,.253-127.281,.017-190.921-.031-8.221,3.226-14.037,9.191-18.894,9.783-7.967,21.439-11.812,33.431-14.712,19.687-4.761,39.768-6.26,59.951-6.631,21.893-.403,43.758,.106,65.525,2.712,18.017,2.157,35.815,5.302,52.446,13.029,5.998,2.787,11.55,6.296,15.919,11.393,2.827,3.298,4.347,6.992,4.284,11.496-.166,11.755-.044,23.514-.06,35.271-.011,7.871-3.852,11.735-11.694,11.737-38.832,.01-77.663,.004-116.495,.005-8.279,0-12.146,3.796-12.149,11.963-.008,25.348-.008,50.697,0,76.045,.002,8.207,3.858,12.063,12.094,12.095,5.609,.022,11.223,.146,16.826-.042,7.727-.259,12.546-6.236,10.557-12.811-1.227-4.056-4.705-6.777-9.072-7.096-6.827-.498-10.421-4.228-10.439-10.989-.035-12.728-.032-25.456,.001-38.184,.019-7.265,3.904-11.024,11.279-11.025,32.575-.002,65.151-.002,97.726,0,7.211,0,10.997,3.54,11.392,10.721,1.372,24.965,2.72,49.931,4.101,74.895,.033,.595,.338,1.175,.517,1.763v36.893Z"/><path d="M0,206.472c.18-1.242,.498-2.481,.518-3.726,.249-15.522,.384-31.045,.706-46.565,.128-6.18,4.162-10.246,8.551-13.845,7.903-6.48,17.272-10.052,26.944-12.831,19.173-5.51,38.872-7.574,58.711-8.568,21.662-1.086,43.327-1.193,64.94,.808,21.315,1.974,42.347,5.347,61.809,14.998,6.713,3.329,12.822,7.532,17.58,13.461,2.082,2.595,3.205,5.357,3.145,8.869-.203,11.861-.071,23.729-.08,35.593-.006,7.487-3.794,11.258-11.379,11.261-37.968,.013-75.936-.004-113.903,.02-8.489,.005-13.495,7.841-9.541,14.841,1.722,3.048,4.445,4.609,7.854,5.004,1.173,.136,2.369,.093,3.555,.093,35.918,.004,71.837,.002,107.755,.005,7.283,0,11.255,3.749,11.319,11.072,.109,12.619,.111,25.24-.004,37.859-.068,7.482-4.064,11.257-11.527,11.258-35.379,.007-70.758,.003-106.137,.003-1.28,0-2.56,0-4.528,0-.833,10.529-1.946,20.886-2.426,31.273-2.987,64.589,11.371,125.773,36.966,184.619,21.101,48.514,48.466,93.235,82.472,133.832,.609,.727,1.075,1.572,1.608,2.362-1.812-.933-3.665-1.793-5.429-2.809-47.72-27.499-91.82-59.865-131.667-97.951-21.341-20.398-40.865-42.298-56.386-67.556-18.403-29.947-31.362-61.977-37.098-96.764-3.042-18.449-3.131-37.107-3.692-55.728-.132-4.387-.419-8.769-.635-13.153,0-32.578,0-65.156,0-97.735Z"/><path d="M559.223,0c.664,.258,1.313,.565,1.993,.765,5.154,1.517,7.713,4.805,8.249,10.698,.097,1.071,.104,2.153,.108,3.23,.012,3.982,.005,7.964,.005,12.456-4.621,0-9.086,.063-13.543-.099-.437-.016-1.135-1.398-1.178-2.175-.148-2.687-.14-5.39-.034-8.081,.074-1.876-.474-2.634-2.521-2.709-9.91-.361-9.908-.421-9.908,9.541,0,18.434,.104,36.87-.095,55.302-.036,3.36,1.024,4.38,4.112,4.229,2.657-.13,5.325-.027,8.185-.027v-22.773q-5.619-1.214-5.622-7.309-.004-7.047,6.993-6.979c3.662,.042,7.324,.205,10.985,.184,1.862-.011,2.679,.508,2.664,2.573-.089,12.073,.078,24.149-.102,36.221-.128,8.574-3.868,12.146-12.449,12.113-6.455-.025-12.938-.101-19.356-.71-6.092-.577-8.94-3.766-9.801-9.762-.183-1.274-.283-2.572-.284-3.86-.017-22.854-.026-45.709,.001-68.563,.004-3.698,.112-7.664,3.058-10.215,2.159-1.869,5.186-2.735,7.826-4.048,6.904,0,13.808,0,20.712,0Z"/><path d="M492.663,257.531c0,28.363-.088,56.727,.057,85.09,.041,7.918-3.408,13.02-10.576,16.024-11.282,4.729-23.198,6.64-35.237,7.533-11.919,.884-23.891,1.17-35.845,1.409-10.565,.212-18.375-7.549-18.71-18.148-.075-2.37,.024-4.745-.02-7.117-.16-8.666-6.77-15.619-15.399-16.106-2.794-.158-5.609-.159-8.406-.034-9.19,.41-15.777,7.387-15.902,16.615-.046,3.44-.01,6.926-.544,10.307-1.224,7.736-8.387,14.321-16.077,14.468-19.533,.372-39.041-.243-58.173-4.636-5.927-1.361-11.732-3.582-17.308-6.055-5.601-2.484-8.217-7.304-8.215-13.525,.018-57.589,.025-115.179-.011-172.768-.004-6.396,2.847-10.936,8.417-13.782,13.949-7.128,28.915-11.094,44.246-13.723,36.132-6.196,72.47-6.598,108.901-3.411,20.236,1.77,40.156,5.173,59.26,12.369,3.72,1.401,7.361,3.049,10.931,4.802,5.752,2.824,8.634,7.479,8.625,13.98-.038,28.903-.016,57.805-.016,86.708Zm-100.321-40.998c0-2.048,0-4.096,0-6.144,0-8.012-2.715-12.319-10.701-13.592-6.239-.994-12.922-.898-19.152,.184-7.2,1.25-9.842,5.664-9.843,12.972,0,4.743,.224,9.5-.059,14.226-.334,5.576,2.362,9.246,7.093,11.147,8.511,3.418,17.295,3.474,25.786-.088,4.579-1.921,7.321-5.523,6.908-10.946-.196-2.572-.034-5.172-.033-7.759Z"/><path d="M503.561,256.019c0-28.905,.032-57.809-.023-86.714-.013-6.861,2.909-11.719,9.042-14.752,10.187-5.037,21.127-7.636,32.274-8.717,14.996-1.455,30.085-1.944,45.129-2.938,2.269-.15,3.393,.77,4.544,2.636,12.555,20.355,25.191,40.659,37.875,60.933,1.882,3.008,4.028,5.869,6.254,8.635,.867,1.078,2.295,1.704,3.468,2.536,.742-1.341,2.013-2.636,2.134-4.031,.482-5.566,.922-11.17,.797-16.747-.259-11.523-1.113-23.035-1.305-34.558-.194-11.594,7.687-19.281,19.222-19.246,5.064,.016,10.132,.104,15.191,.322,15.094,.65,30.128,1.896,44.712,6.154,4.215,1.231,8.354,2.876,12.323,4.762,5.893,2.801,8.797,7.707,8.805,14.269,.009,6.579,.014,13.158,.015,19.737,.002,51.015,.003,102.029,.004,153.044,0,9.338-2.962,13.767-11.727,17.18-10.637,4.142-21.816,6.095-33.088,6.99-13.952,1.109-27.967,1.419-41.95,2.155-1.963,.103-3.056-.612-4.189-2.188-13.216-18.373-26.512-36.688-39.821-54.994-1.073-1.476-2.312-2.854-3.616-4.132-3.138-3.075-5.203-2.479-6.168,1.85-.466,2.09-.795,4.275-.742,6.406,.279,11.306,.748,22.608,1.056,33.913,.308,11.294-7.293,19.076-18.491,19.117-18.674,.068-37.313-.533-55.616-4.595-5.843-1.297-11.598-3.296-17.133-5.6-6.16-2.564-9.001-7.649-8.992-14.39,.039-29.012,.017-58.025,.017-87.038Z"/><path d="M465.269,48.483c3.285,3.019,4.114,6.594,4.101,10.509-.028,8.305,.03,16.611-.019,24.916-.044,7.478-3.198,11.439-10.624,12.035-8.365,.672-16.79,.624-25.191,.806-5.808,.126-5.81,.062-5.81-5.905-.002-28.691,.056-57.383-.085-86.073-.017-3.362,.953-4.191,4.192-4.094,7.867,.235,15.746,.015,23.619,.093,7.736,.077,11.923,2.679,13.426,8.222,.306,1.13,.452,2.337,.458,3.509,.038,8.737,.035,17.473,.017,26.21-.007,3.698-1.123,6.985-4.083,9.771Zm-22.768,33.789c3.836,0,7.354,.087,10.858-.09,.545-.028,1.466-1.253,1.476-1.935,.107-7.529,.106-15.062,.002-22.591-.01-.692-.904-1.94-1.434-1.966-3.596-.175-7.205-.092-10.901-.092v26.674Zm.144-67.483v26.733c3.571,0,6.904,.128,10.213-.1,.726-.05,1.94-1.358,1.955-2.106,.147-7.438,.148-14.882,.001-22.32-.015-.748-1.228-2.056-1.953-2.106-3.309-.228-6.642-.1-10.216-.1Z"/><path d="M321.037,466.353c0-10.558-.016-21.115,.004-31.673,.016-8.69,3.605-12.347,12.183-12.054,6.121,.209,12.274,.461,18.33,1.297,6.179,.853,9.22,4.67,9.261,10.905,.139,21.326,.24,42.652,.212,63.979-.011,8.126-3.525,11.621-11.614,11.854-5.488,.158-10.988,.16-16.476,0-8.373-.245-11.83-3.852-11.883-12.311-.067-10.665-.016-21.33-.017-31.996Zm14.321-30.639v62.559c3.048,0,5.931-.091,8.804,.03,2.072,.088,2.879-.603,2.805-2.768-.143-4.199-.041-8.407-.041-12.611,0-14.66,.005-29.32-.01-43.981-.001-1.44,.451-3.233-1.973-3.231-3.103,.003-6.207,0-9.586,0Z"/><path d="M302.911,445.289c-4.266,0-8.021,.143-11.748-.117-.775-.054-1.944-1.541-2.065-2.479-.301-2.334-.171-4.735-.083-7.104,.068-1.83-.523-2.839-2.503-2.896-2.994-.087-5.985-.293-9.333-.467-.062,1.346-.152,2.381-.151,3.416,.027,19.52,.112,39.04,.047,58.559-.009,2.665,.736,3.519,3.45,3.491,8.472-.088,8.473,.018,8.471-8.349q-.001-5.216,5.091-5.084c2.582,.074,5.164,.192,7.744,.325,.297,.015,.584,.252,1.03,.457,0,5.333,.23,10.727-.063,16.093-.311,5.697-3.971,9.193-9.957,9.448-6.456,.275-12.944,.294-19.397-.009-6.318-.297-9.525-3.691-10.188-9.97-.124-1.176-.145-2.366-.145-3.55-.008-21.678-.01-43.356,.003-65.033,0-1.398,.045-2.805,.214-4.191,.695-5.7,3.791-8.979,9.549-8.924,6.771,.064,13.589,.503,20.285,1.482,6.478,.947,9.621,5.189,9.732,11.752,.074,4.401,.014,8.805,.014,13.152Z"/><path d="M694.026,421.648c-1.017,6.062-1.915,11.665-2.901,17.252-4.006,22.69-8.095,45.365-11.987,68.074-.458,2.672-1.492,3.355-3.973,3.211-3.224-.188-6.469-.108-9.702-.024-1.725,.045-2.411-.58-2.725-2.338-4.863-27.241-9.804-54.468-14.714-81.7-.09-.502-.011-1.034-.011-1.895,4.323-.273,8.48-.672,12.637-.665,.703,.001,1.865,1.673,2.036,2.702,2.501,15.088,4.868,30.198,7.277,45.301,.184,1.152,.455,2.289,1.109,3.436,1.764-10.869,3.539-21.736,5.288-32.607,.924-5.743,1.832-11.488,2.679-17.242,.267-1.811,.835-2.918,2.986-2.939,3.849-.038,7.695-.348,12.002-.568Z"/><path d="M513.27,469.229c0-10.028-.022-20.056,.007-30.084,.023-7.811,3.531-11.665,11.268-11.948,6.345-.233,12.718-.324,19.054,0,5.862,.299,8.803,3.25,9.414,9.1,.401,3.842,.333,7.753,.168,11.62-.033,.776-1.39,2.044-2.242,2.138-2.987,.33-6.02,.232-9.034,.324-1.806,.055-2.956-.531-2.744-2.589,.011-.107,.004-.216,0-.323-.3-9.048-.297-8.989-9.254-8.565-2.026,.096-2.554,.883-2.53,2.756,.079,6.037,.028,12.076,.028,18.115,0,11.861,.053,23.722-.045,35.583-.02,2.376,.399,3.432,3.139,3.421,8.632-.034,8.755,.084,8.594-8.548-.057-3.063,.773-4.365,3.971-4.083,2.568,.226,5.174,.11,7.759,.027,1.806-.058,2.538,.675,2.483,2.473-.126,4.091,.035,8.201-.287,12.275-.49,6.195-3.425,9.304-9.601,9.625-6.665,.346-13.374,.358-20.039,.015-6.858-.352-10.065-4.065-10.096-10.922-.047-10.136-.012-20.271-.012-30.407Z"/><path d="M724.435,496.764c3.239,0,6.241,.042,9.24-.015,1.952-.037,3.043,.539,2.927,2.771-.14,2.689-.142,5.397,.002,8.086,.111,2.07-.81,2.573-2.674,2.557-7.118-.063-14.238-.053-21.357-.008-1.679,.011-2.571-.375-2.568-2.332,.054-28.691,.051-57.383,.072-86.074,0-.307,.16-.614,.348-1.29,8.464-.622,17.024-1.251,26.126-1.92,0,4.169,.077,8.008-.092,11.835-.023,.509-1.253,1.296-1.993,1.384-3.291,.393-6.607,.579-10.097,.854v24.832c3.367-.161,6.564-.262,9.753-.488,1.804-.128,2.545,.501,2.473,2.365-.107,2.8-.144,5.614,.009,8.41,.123,2.246-.943,2.783-2.903,2.733-3-.077-6.003-.02-9.267-.02v26.32Z"/><path d="M483.425,462.247c3.338,0,6.446,.05,9.552-.018,2.045-.045,2.935,.749,2.845,2.873-.122,2.89-.03,5.789-.03,9.104h-12.206v24.07c3.192,0,6.387,.067,9.577-.025,1.917-.055,2.744,.604,2.66,2.613-.122,2.894-.031,5.796-.031,8.984h-26.334v-82.107c8.182,0,16.236-.048,24.286,.085,.69,.011,1.375,1.212,2.025,1.897,.109,.115,.012,.418,.024,.633q.532,9.214-8.643,9.232c-1.161,.002-2.322,0-3.724,0v22.659Z"/><path d="M590.408,509.942h-13.913v-70.861h-10.788v-12.008c8.123-.214,16.172-.413,24.22-.645,3.009-.087,6.018-.206,9.022-.397,1.765-.112,2.656,.586,2.665,2.366,.001,.215,0,.431,.009,.646q.335,8.628-8.14,9.309c-.751,.061-1.501,.149-2.246,.261-.194,.029-.367,.197-.828,.458v70.869Z"/><path d="M491.262,48.241c0-14.657,.081-29.315-.069-43.971-.03-2.936,.898-3.791,3.687-3.564,2.677,.218,5.392,.166,8.077,.01,2.461-.143,3.15,.895,3.125,3.229-.096,9.052-.041,18.106-.041,27.159,0,20.369-.052,40.739,.061,61.107,.015,2.804-.673,3.901-3.597,3.636-2.779-.252-5.609-.195-8.399-.011-2.349,.155-2.896-.785-2.884-2.977,.078-14.872,.041-29.745,.04-44.618Z"/><path d="M439.482,498.05h13.344v11.72c-.611,.111-1.315,.347-2.019,.35-7.547,.028-15.094-.035-22.639,.056-2.102,.026-2.851-.708-2.847-2.804,.043-25.982,.046-51.964-.002-77.946-.004-2.004,.721-2.699,2.652-2.583,2.579,.155,5.176,.336,7.748,.19,2.858-.163,3.863,.681,3.841,3.775-.147,21.13-.077,42.261-.077,63.391v3.849Z"/><path d="M382.03,425.877h13.558v71.969c4.037,0,7.564,.072,11.085-.029,1.934-.055,2.767,.661,2.726,2.612-.066,3.103-.018,6.209-.018,9.51h-27.351v-84.062Z"/><path d="M631.605,425.357v84.744c-4.234,0-8.386,.085-12.526-.105-.531-.024-1.384-1.452-1.426-2.264-.166-3.225-.069-6.464-.07-9.697,0-18.755-.014-37.51,.009-56.266,.006-4.63,.049-9.263,.272-13.886,.042-.866,.985-2.382,1.578-2.415,3.943-.217,7.904-.113,12.162-.113Z"/></g></g></svg>