<?xml version="1.0" encoding="utf-8"?>
<!-- Generator: Adobe Illustrator 19.2.1, SVG Export Plug-In . SVG Version: 6.00 Build 0)  -->
<svg version="1.1" id="layer" xmlns="http://www.w3.org/2000/svg" xmlns:xlink="http://www.w3.org/1999/xlink" x="0px" y="0px"
	 viewBox="0 0 652 652" style="enable-background:new 0 0 652 652;" xml:space="preserve">
<style type="text/css">
	.st0{fill: #000;}
</style>
<g>
	<path class="st0" d="M226,257.7h19c8.9,0,18.6,1.9,18.6,13c0,5.7-3.5,9.6-8.8,11.2v0.1c6.7,0.9,11.2,5.8,11.2,12.5
		c0,10.7-10.1,14.2-19.1,14.2H226V257.7z M237.3,278h8.1c3.5,0,7.1-1.4,7.1-5.5c0-4.2-4-5.3-7.6-5.3h-7.6V278z M237.3,299.1h10.1
		c3.5,0,7.5-1.5,7.5-6c0-4.8-5.4-5.6-9.1-5.6h-8.5V299.1z"/>
	<path class="st0" d="M276.9,256.4c3.5,0,6.3,2.8,6.3,6.3c0,3.5-2.8,6.3-6.3,6.3c-3.5,0-6.3-2.8-6.3-6.3
		C270.6,259.2,273.4,256.4,276.9,256.4 M271.5,273.6h10.8v35h-10.8V273.6z"/>
	<path class="st0" d="M290,273.6h10.8v5.6h0.1c2.3-4.2,5.3-6.5,10.1-6.5c1.2,0,2.6,0.1,3.6,0.4v9.9c-1.5-0.4-3-0.7-4.6-0.7
		c-8.2,0-9.2,4.8-9.2,11.7v14.6H290V273.6z"/>
	<path class="st0" d="M319.3,273.6h10.4v4.8h0.1c1.4-2.7,5-5.6,10.2-5.6c4.9,0,8.9,2,10.8,6.3c2.5-4.5,5.9-6.3,11.1-6.3
		c9.5,0,12.4,6.7,12.4,15.2v20.7h-10.8v-20.4c0-3.2-1.2-6-4.7-6c-5,0-6.6,3.5-6.6,7.8v18.5h-10.8v-18.5c0-2.6,0.1-7.8-4.8-7.8
		c-5.6,0-6.5,4.4-6.5,8.9v17.4h-10.8V273.6z"/>
	<path class="st0" d="M387.5,256.4c3.5,0,6.3,2.8,6.3,6.3c0,3.5-2.8,6.3-6.3,6.3c-3.5,0-6.3-2.8-6.3-6.3
		C381.2,259.2,384.1,256.4,387.5,256.4 M382.1,273.6h10.8v35h-10.8V273.6z"/>
	<path class="st0" d="M400.7,273.6H411v4.8h0.1c1.4-2.7,5-5.6,10.2-5.6c10.9,0,13,7.2,13,16.6v19.3h-10.8v-17.1c0-4-0.1-9.2-5.6-9.2
		c-5.6,0-6.5,4.4-6.5,8.9v17.4h-10.8V273.6z"/>
	<path class="st0" d="M477.3,305.7c0,13.2-6.7,20.2-20.2,20.2c-6.2,0-12.5-1.1-17.6-5.1l6-8.9c3.3,2.8,7,4.5,11.4,4.5
		c6.6,0,9.6-3.6,9.6-8.6v-3.4h-0.1c-2.5,3.4-6.6,4.6-9.9,4.6c-10.4,0-17.2-7.5-17.2-18.1c0-9.3,6-18.2,16-18.2
		c6.1,0,10.3,3,11.9,5.5h0.1v-4.6h9.9V305.7z M458.7,299.5c4.9,0,8.6-4.1,8.6-8.6c0-4.5-3.7-8.6-8.6-8.6c-4.9,0-8.6,4.1-8.6,8.6
		C450.1,295.4,453.8,299.5,458.7,299.5"/>
	<path class="st0" d="M496.7,254.2v24.2h0.1c1-2.7,4.5-5.6,9.8-5.6c10.9,0,13,7.2,13,16.6v19.3h-10.8v-17.1c0-4-0.1-9.2-5.6-9.2
		c-5.6,0-6.5,4.4-6.5,8.9v17.4h-10.8v-54.4H496.7z"/>
	<path class="st0" d="M549.2,304.2H549c-2.4,3.7-6.7,5.2-11.1,5.2c-6.6,0-12.5-3.7-12.5-10.8c0-12.1,14.7-12.3,23.7-12.3
		c0-3.8-3.2-6.3-6.9-6.3c-3.5,0-6.5,1.6-8.8,4.2l-5.8-5.9c4-3.7,9.7-5.6,15.4-5.6c12.6,0,16,6.4,16,18.1v17.8h-9.9V304.2z
		 M546.5,293.3c-3.3,0-10.7,0.3-10.7,5c0,2.6,2.7,3.8,5.1,3.8c4.2,0,8.2-2.2,8.2-6.5v-2.3H546.5z"/>
	<path class="st0" d="M566,273.6h10.4v4.8h0.1c1.4-2.7,5-5.6,10.2-5.6c4.9,0,8.9,2,10.8,6.3c2.5-4.5,5.9-6.3,11.1-6.3
		c9.5,0,12.4,6.7,12.4,15.2v20.7h-10.8v-20.4c0-3.2-1.2-6-4.7-6c-5,0-6.6,3.5-6.6,7.8v18.5h-10.8v-18.5c0-2.6,0.1-7.8-4.8-7.8
		c-5.6,0-6.5,4.4-6.5,8.9v17.4H566V273.6z"/>
	<path class="st0" d="M271.7,365.2c-3.4,5.2-10.4,9.4-18.9,9.4c-15.2,0-26.6-11.3-26.6-26.8c0-15.5,11.4-26.8,26.6-26.8
		c6.3,0,13.2,2.4,17.6,8.1l-4.5,3.4c-2-3.3-7.7-6.7-13.1-6.7c-13.1,0-20.9,10.3-20.9,22s7.8,22,20.9,22c5.3,0,10.8-1.7,14.6-7.6
		L271.7,365.2z"/>
	<path class="st0" d="M280.6,330.1c-1.7,0-3.5-1.4-3.5-3.5c0-2,1.7-3.5,3.5-3.5c1.7,0,3.5,1.4,3.5,3.5
		C284,328.7,282.3,330.1,280.6,330.1 M283,373.3h-4.8v-33.7h4.8V373.3z"/>
	<path class="st0" d="M308.9,343.9h-9.7v19.9c0,5,1.9,6,4.9,6c1.7,0,3.5-0.5,4.9-1.3l0.2,4.4c-1.7,0.8-4,1.2-6.4,1.2
		c-3.6,0-8.3-1.6-8.3-9v-21.2h-7.1v-4.3h7.1v-9.5h4.7v9.5h9.7V343.9z"/>
	<path class="st0" d="M329.2,367.5l10.3-27.9h5.8l-16.8,42.5c-2,5.2-4.8,8.5-10.6,8.5c-1.4,0-2.9-0.1-4.4-0.5l0.5-4.6
		c1.1,0.6,2.3,0.8,3.6,0.8c3.3,0,5-2.2,6.5-6l2.4-6.5l-13.8-34.1h6L329.2,367.5z"/>
	<path class="st0" d="M407.8,365.2c-3.4,5.2-10.4,9.4-18.9,9.4c-15.2,0-26.6-11.3-26.6-26.8c0-15.5,11.4-26.8,26.6-26.8
		c6.3,0,13.2,2.4,17.6,8.1l-4.5,3.4c-2-3.3-7.7-6.7-13.1-6.7c-13.1,0-20.9,10.3-20.9,22s7.8,22,20.9,22c5.3,0,10.8-1.7,14.6-7.6
		L407.8,365.2z"/>
	<path class="st0" d="M430.8,374.2c-10.4,0-17.9-7.6-17.9-17.7c0-10.2,7.4-17.7,17.9-17.7c10.5,0,17.9,7.6,17.9,17.7
		C448.7,366.6,441.3,374.2,430.8,374.2 M430.8,343.1c-7.8,0-12.7,5.8-12.7,13.4c0,7.6,4.9,13.4,12.7,13.4c7.8,0,12.7-5.8,12.7-13.4
		C443.6,348.9,438.7,343.1,430.8,343.1"/>
	<path class="st0" d="M480.2,373.3c-0.2-1.8-0.2-3.6-0.2-5.4h-0.1c-2.1,3.7-6.8,6.3-11.3,6.3c-8.6,0-12.7-4.8-12.7-13.2v-21.4h4.8
		v18.6c0,7.5,2.1,11.6,9.1,11.6c1,0,10.2-0.7,10.2-13v-17.3h4.8v26.3c0,1.8,0.2,5,0.4,7.4H480.2z"/>
	<path class="st0" d="M500.4,339.6c0.2,1.8,0.2,3.6,0.2,5.4h0.1c2.1-3.7,6.8-6.3,11.3-6.3c8.6,0,12.7,4.8,12.7,13.2v21.4h-4.8v-18.6
		c0-7.5-2.1-11.6-9.1-11.6c-1,0-10.2,0.7-10.2,13v17.3h-4.8V347c0-1.8-0.2-5-0.4-7.4H500.4z"/>
	<path class="st0" d="M560.3,347.5c-1.6-2.5-4.7-4.5-8.4-4.5c-7.8-0.1-12.7,5.7-12.7,13.4c0,7.7,4.8,13.5,12.7,13.4
		c3.7,0,6.8-2,8.4-4.5l3.9,3c-3.3,3.9-7.8,5.8-12.3,5.8c-11,0.1-17.9-7.6-17.9-17.7c0-10.1,6.8-17.8,17.9-17.7
		c4.5,0.1,9,1.9,12.3,5.8L560.3,347.5z"/>
	<path class="st0" d="M573.8,330.1c-1.7,0-3.5-1.4-3.5-3.5c0-2,1.7-3.5,3.5-3.5c1.7,0,3.5,1.4,3.5,3.5
		C577.3,328.7,575.6,330.1,573.8,330.1 M576.2,373.3h-4.8v-33.7h4.8V373.3z"/>
	<rect x="588" y="318.9" class="st0" width="4.8" height="54.4"/>
	<rect x="197.5" y="257.6" class="st0" width="4.8" height="115.9"/>
	<path class="st0" d="M174.3,271.4c0-7.3-5.7-13.3-12.8-13.8h-26c-4,0-7.6,1.7-10.1,4.5l-72.6,72.5l35.2,35.1c2.5,2.5,6,4.1,9.8,4.1
		c3.7,0,7.1-1.5,9.6-3.9l62.9-62.8c0.1-0.1,0.2-0.2,0.3-0.3l0,0v0c2.4-2.5,3.9-5.9,3.9-9.6v-0.4v-25V271.4z"/>
	<path class="st0" d="M89.8,281.8L70,262.1c-2.5-2.7-6.1-4.5-10.1-4.5h-26c-7.2,0.5-12.8,6.5-12.8,13.8v0.3v25v0.4
		c0,3.7,1.5,7.1,3.9,9.6l20,20L89.8,281.8z"/>
</g>
</svg>
